# xmcd
#
# Track frame offsets:
#	150
#	16624
#	30121
#	42634
#	58841
#	75501
#	88529
#	105227
#	120610
#	132834
#	147750
#	162824
#	178612
#	196143
#	209157
#	218369
#
# Disc length: 3089 seconds
#
# Revision: 1
# Processed by: cddbd v1.5.2PL0 Copyright (c) Steve Scherf et al.
# Submitted via: audiograbber 1.83.01
#
DISCID=c70c0f10
DTITLE=Cal Smith - The Best Of Cal Smith
DYEAR=1900
DGENRE=
TTITLE0=Jason's Farm
TTITLE1=The Ghost Of Jim Bob Wilson
TTITLE2=An Hour And A Six Pack
TTITLE3=Thunderstorms
TTITLE4=Country Bumpkin
TTITLE5=Between Lust And Watching T.V.
TTITLE6=It's Time To Pay The Fiddler
TTITLE7=She Talked A Lot About Texas
TTITLE8=Drinking Champagne
TTITLE9=Bits and Pieces Of Life
TTITLE10=Helen
TTITLE11=I Just Came Home To Count The Memories
TTITLE12=MacArthurs Hotel
TTITLE13=The Lord Knows I'm Drinking
TTITLE14=Throwin' Memories On The Fire
TTITLE15=Woman Don't Try To Sing My Song
EXTD=
EXTT0=
EXTT1=
EXTT2=
EXTT3=
EXTT4=
EXTT5=
EXTT6=
EXTT7=
EXTT8=
EXTT9=
EXTT10=
EXTT11=
EXTT12=
EXTT13=
EXTT14=
EXTT15=
PLAYORDER=
